<svg width="511" height="35" viewBox="0 0 511 35" fill="none" xmlns="http://www.w3.org/2000/svg">
<path d="M1 17.5L217 17.5" stroke="#0B247A" stroke-linecap="round"/>
<path d="M250.288 23.612C249.253 23.612 248.309 23.372 247.456 22.892C246.603 22.4013 245.925 21.724 245.424 20.86C244.933 19.9853 244.688 19.004 244.688 17.916C244.688 16.828 244.933 15.852 245.424 14.988C245.925 14.1133 246.603 13.436 247.456 12.956C248.309 12.4653 249.253 12.22 250.288 12.22C251.333 12.22 252.283 12.4653 253.136 12.956C253.989 13.436 254.661 14.108 255.152 14.972C255.643 15.836 255.888 16.8173 255.888 17.916C255.888 19.0147 255.643 19.996 255.152 20.86C254.661 21.724 253.989 22.4013 253.136 22.892C252.283 23.372 251.333 23.612 250.288 23.612ZM250.288 22.348C251.067 22.348 251.765 22.1667 252.384 21.804C253.013 21.4413 253.504 20.924 253.856 20.252C254.219 19.58 254.4 18.8013 254.4 17.916C254.4 17.02 254.219 16.2413 253.856 15.58C253.504 14.908 253.019 14.3907 252.4 14.028C251.781 13.6653 251.077 13.484 250.288 13.484C249.499 13.484 248.795 13.6653 248.176 14.028C247.557 14.3907 247.067 14.908 246.704 15.58C246.352 16.2413 246.176 17.02 246.176 17.916C246.176 18.8013 246.352 19.58 246.704 20.252C247.067 20.924 247.557 21.4413 248.176 21.804C248.805 22.1667 249.509 22.348 250.288 22.348ZM259.266 16.156C259.522 15.6547 259.885 15.2653 260.354 14.988C260.834 14.7107 261.415 14.572 262.098 14.572V16.076H261.714C260.082 16.076 259.266 16.9613 259.266 18.732V23.5H257.81V14.732H259.266V16.156Z" fill="#0B247A"/>
<path d="M290 17.5H509" stroke="#0B247A" stroke-linecap="round"/>
</svg>
