<svg width="46" height="41" viewBox="0 0 46 41" fill="none" xmlns="http://www.w3.org/2000/svg">
<path d="M20.8696 28.6269C20.8472 20.287 18.0949 12.7471 12.6128 6.00724C8.35743 0.98877 5.15432 -0.402471 3.00344 1.83352C2.50172 2.41037 2.25192 3.09422 2.25404 3.88507C2.2579 5.32299 3.01723 6.97406 4.53205 8.83828C8.35524 13.5706 10.3457 18.5248 10.5034 23.7008C8.77593 22.9876 7.05093 23.1731 5.32833 24.2573C2.02635 26.2096 0.379123 28.5877 0.386646 31.3916C0.394363 34.2674 1.33518 36.565 3.20909 38.2842C5.08299 40.0034 7.09838 40.8594 9.25524 40.8522C11.484 40.8447 13.2086 40.5154 14.4291 39.8643C15.6498 39.285 16.7618 38.4185 17.7653 37.2648C19.8439 34.8853 20.8787 32.006 20.8696 28.6269Z" fill="#9AD4DB"/>
<path d="M45.4673 28.6269C45.4449 20.287 42.6927 12.7471 37.2105 6.00724C32.9551 0.98877 29.752 -0.402471 27.6012 1.83352C27.0994 2.41037 26.8496 3.09422 26.8518 3.88507C26.8556 5.32299 27.615 6.97406 29.1298 8.83828C32.953 13.5706 34.9434 18.5248 35.1011 23.7008C33.3737 22.9876 31.6486 23.1731 29.926 24.2573C26.6241 26.2096 24.9768 28.5877 24.9844 31.3916C24.9921 34.2674 25.9329 36.565 27.8068 38.2842C29.6807 40.0034 31.6961 40.8594 33.853 40.8522C36.0817 40.8447 37.8063 40.5154 39.0268 39.8643C40.2475 39.285 41.3596 38.4185 42.363 37.2648C44.4416 34.8853 45.4764 32.006 45.4673 28.6269Z" fill="#9AD4DB"/>
</svg>
