<svg width="72" height="71" viewBox="0 0 72 71" fill="none" xmlns="http://www.w3.org/2000/svg">
<rect x="0.5" width="71" height="71" rx="35.5" fill="#CBEBD2"/>
<g clip-path="url(#clip0_1481_4674)">
<rect x="9.5" y="9" width="53" height="53" rx="26.5" fill="#FDFDFD"/>
<path d="M9.5 9H62.5V62H9.5V9Z" fill="#FAFBFB"/>
<path d="M30.79 43.2959C30.0089 44.0763 28.7431 44.076 27.9623 43.2952L21.5763 36.9092C20.7972 36.1301 19.5347 36.1279 18.7529 36.9042L18.4555 37.1996C17.6697 37.9798 17.6675 39.25 18.4505 40.033L27.9616 49.5441C28.7427 50.3252 30.009 50.3252 30.79 49.5441L54.4616 25.8725C55.2427 25.0915 55.2427 23.8252 54.4616 23.0441L54.1756 22.7581C53.3948 21.9773 52.129 21.977 51.3479 22.7575L30.79 43.2959Z" fill="#81CF92"/>
</g>
<defs>
<clipPath id="clip0_1481_4674">
<rect x="9.5" y="9" width="53" height="53" rx="26.5" fill="light"/>
</clipPath>
</defs>
</svg>
