<svg width="34" height="34" viewBox="0 0 34 34" fill="none" xmlns="http://www.w3.org/2000/svg">
<rect width="34" height="34" rx="17" fill="#E7EBF7"/>
<g clip-path="url(#clip0_1024_6928)">
<path d="M17.0013 8.66667C13.7763 8.66667 11.168 11.275 11.168 14.5C11.168 18.875 17.0013 25.3333 17.0013 25.3333C17.0013 25.3333 22.8346 18.875 22.8346 14.5C22.8346 11.275 20.2263 8.66667 17.0013 8.66667ZM12.8346 14.5C12.8346 12.2 14.7013 10.3333 17.0013 10.3333C19.3013 10.3333 21.168 12.2 21.168 14.5C21.168 16.9 18.768 20.4917 17.0013 22.7333C15.268 20.5083 12.8346 16.875 12.8346 14.5Z" fill="#0B247A"/>
<path d="M17.0013 16.5833C18.1519 16.5833 19.0846 15.6506 19.0846 14.5C19.0846 13.3494 18.1519 12.4167 17.0013 12.4167C15.8507 12.4167 14.918 13.3494 14.918 14.5C14.918 15.6506 15.8507 16.5833 17.0013 16.5833Z" fill="#0B247A"/>
</g>
<defs>
<clipPath id="clip0_1024_6928">
<rect width="20" height="20" fill="white" transform="translate(7 7)"/>
</clipPath>
</defs>
</svg>
