<svg width="34" height="34" viewBox="0 0 34 34" fill="none" xmlns="http://www.w3.org/2000/svg">
<rect width="34" height="34" rx="17" fill="#E7EBF7"/>
<g clip-path="url(#clip0_1024_6902)">
<path d="M12.45 11.1667C12.5 11.9083 12.625 12.6333 12.825 13.325L11.825 14.325C11.4833 13.325 11.2667 12.2667 11.1917 11.1667H12.45ZM20.6667 21.1833C21.375 21.3833 22.1 21.5083 22.8333 21.5583V22.8C21.7333 22.725 20.675 22.5083 19.6667 22.175L20.6667 21.1833ZM13.25 9.5H10.3333C9.875 9.5 9.5 9.875 9.5 10.3333C9.5 18.1583 15.8417 24.5 23.6667 24.5C24.125 24.5 24.5 24.125 24.5 23.6667V20.7583C24.5 20.3 24.125 19.925 23.6667 19.925C22.6333 19.925 21.625 19.7583 20.6917 19.45C20.6083 19.4167 20.5167 19.4083 20.4333 19.4083C20.2167 19.4083 20.0083 19.4917 19.8417 19.65L18.0083 21.4833C15.65 20.275 13.7167 18.35 12.5167 15.9917L14.35 14.1583C14.5833 13.925 14.65 13.6 14.5583 13.3083C14.25 12.375 14.0833 11.375 14.0833 10.3333C14.0833 9.875 13.7083 9.5 13.25 9.5Z" fill="#0B247A"/>
</g>
<defs>
<clipPath id="clip0_1024_6902">
<rect width="20" height="20" fill="white" transform="translate(7 7)"/>
</clipPath>
</defs>
</svg>
