<svg width="92" height="17" viewBox="0 0 92 17" fill="none" xmlns="http://www.w3.org/2000/svg">
<path d="M3.47923 16.0189L4.79339 10.0946L0.423828 6.11162L6.17961 5.58754L8.4338 0L10.688 5.58643L16.4427 6.11051L12.0732 10.0935L13.3884 16.0178L8.4338 12.8733L3.47923 16.0189Z" fill="#0B247A"/>
<path d="M22.1687 16.0189L23.4828 10.0946L19.1133 6.11162L24.8691 5.58754L27.1233 0L29.3775 5.58643L35.1322 6.11051L30.7626 10.0935L32.0778 16.0178L27.1233 12.8733L22.1687 16.0189Z" fill="#0B247A"/>
<path d="M40.8562 16.0189L42.1703 10.0946L37.8008 6.11162L43.5566 5.58754L45.8108 0L48.065 5.58643L53.8197 6.11051L49.4501 10.0935L50.7653 16.0178L45.8108 12.8733L40.8562 16.0189Z" fill="#0B247A"/>
<path d="M59.5456 16.0189L60.8598 10.0946L56.4902 6.11162L62.246 5.58754L64.5002 0L66.7544 5.58643L72.5091 6.11051L68.1396 10.0935L69.4548 16.0178L64.5002 12.8733L59.5456 16.0189Z" fill="#0B247A"/>
<path d="M79.8493 13.6795L83.1877 11.5609L86.5261 13.7074L85.6517 9.69318L88.5927 7.01705L84.7244 6.65465L83.1877 2.86346L81.651 6.62678L77.7827 6.98917L80.7237 9.69318L79.8493 13.6795ZM78.2331 16.0189L79.5473 10.0946L75.1777 6.11162L80.9335 5.58754L83.1877 0L85.4419 5.58643L91.1966 6.11051L86.8271 10.0935L88.1423 16.0178L83.1877 12.8733L78.2331 16.0189Z" fill="#0B247A"/>
</svg>
