<svg width="34" height="34" viewBox="0 0 34 34" fill="none" xmlns="http://www.w3.org/2000/svg">
<rect width="34" height="34" rx="17" fill="#E7EBF7"/>
<g clip-path="url(#clip0_1024_6929)">
<path d="M16.993 8.66666C12.393 8.66666 8.66797 12.4 8.66797 17C8.66797 21.6 12.393 25.3333 16.993 25.3333C21.6013 25.3333 25.3346 21.6 25.3346 17C25.3346 12.4 21.6013 8.66666 16.993 8.66666ZM17.0013 23.6667C13.318 23.6667 10.3346 20.6833 10.3346 17C10.3346 13.3167 13.318 10.3333 17.0013 10.3333C20.6846 10.3333 23.668 13.3167 23.668 17C23.668 20.6833 20.6846 23.6667 17.0013 23.6667ZM17.418 12.8333H16.168V17.8333L20.543 20.4583L21.168 19.4333L17.418 17.2083V12.8333Z" fill="#0B247A"/>
</g>
<defs>
<clipPath id="clip0_1024_6929">
<rect width="20" height="20" fill="white" transform="translate(7 7)"/>
</clipPath>
</defs>
</svg>
