<svg width="81" height="82" viewBox="0 0 81 82" fill="none" xmlns="http://www.w3.org/2000/svg">
<path d="M39.2012 3.25C39.7424 2.31266 41.0442 2.25413 41.6807 3.07422L41.7988 3.25L74.708 60.25C75.2853 61.2499 74.5638 62.4999 73.4092 62.5H7.59082C6.50847 62.4999 5.80717 61.4016 6.19922 60.4404L6.29199 60.25L39.2012 3.25Z" stroke="#FFE8BB" stroke-width="5"/>
<path d="M39.1342 24.2233C39.5193 23.5579 40.48 23.5579 40.8652 24.2233L55.7597 49.9575C56.1456 50.6241 55.6645 51.4584 54.8942 51.4584H25.1051C24.3349 51.4584 23.8538 50.6241 24.2396 49.9575L39.1342 24.2233ZM40.8651 15.4116C40.4799 14.7463 39.5194 14.7463 39.1342 15.4116L16.577 54.374C16.1911 55.0407 16.6721 55.8751 17.4425 55.8751H62.5569C63.3272 55.8751 63.8083 55.0407 63.4223 54.374L40.8651 15.4116ZM42.208 45.8334C42.208 45.2811 41.7603 44.8334 41.208 44.8334H38.7913C38.2391 44.8334 37.7913 45.2811 37.7913 45.8334V48.2501C37.7913 48.8024 38.2391 49.2501 38.7913 49.2501H41.208C41.7603 49.2501 42.208 48.8024 42.208 48.2501V45.8334ZM42.208 32.5834C42.208 32.0311 41.7603 31.5834 41.208 31.5834H38.7913C38.2391 31.5834 37.7913 32.0311 37.7913 32.5834V39.4167C37.7913 39.969 38.2391 40.4167 38.7913 40.4167H41.208C41.7603 40.4167 42.208 39.969 42.208 39.4167V32.5834Z" fill="#FFD88A"/>
</svg>
