<svg width="60" height="19" viewBox="0 0 60 19" fill="none" xmlns="http://www.w3.org/2000/svg">
<path d="M58.2682 18.3554C58.9487 18.3554 59.5004 17.8136 59.5004 17.1452C59.5004 16.4769 58.9487 15.9351 58.2682 15.9351C57.5878 15.9351 57.0361 16.4769 57.0361 17.1452C57.0361 17.8136 57.5878 18.3554 58.2682 18.3554Z" fill="#0F34AE"/>
<path d="M0.5 18.2206V3.96265H6.11884C10.0539 3.96265 12.8526 6.60337 12.8526 10.9414C12.8526 15.2794 10.3383 18.2206 6.57767 18.2206H0.5ZM5.9659 15.7932C8.61166 15.7932 9.74801 14.1619 9.74801 10.9414C9.74801 7.72087 8.60451 6.43209 5.7029 6.43209H3.45164V15.7932H5.9659Z" fill="#1F2937"/>
<path d="M13.8359 18.2207V7.66066H16.5089V8.92416C17.4494 7.50623 18.5428 7.37988 19.7006 7.37988H20.0723V10.2326C19.8125 10.1895 19.5495 10.1679 19.2861 10.168C17.5366 10.168 16.6832 11.0272 16.6832 12.7231V18.2207H13.8359Z" fill="#1F2937"/>
<path d="M28.3967 18.2207L24.5488 7.66064H27.7177L29.9704 14.6394L32.2445 7.66064H35.2334L31.3741 18.2207H28.3967Z" fill="#1F2937"/>
<path d="M37.8637 13.6679C37.9509 15.2571 38.8642 16.2876 40.2679 16.2876C41.1855 16.2876 41.9945 15.8369 42.1918 15.1069H45.122C44.4659 17.2759 42.6921 18.5001 40.4051 18.5001C36.8188 18.5001 35.0264 16.567 35.0264 12.7442C35.0207 9.48572 36.9232 7.37988 40.2236 7.37988C43.524 7.37988 45.2749 9.48572 45.2749 13.6707L37.8637 13.6679ZM42.3447 11.9074C42.3004 10.3393 41.2513 9.58821 40.1364 9.58821C39.0215 9.58821 38.0595 10.4474 37.9494 11.9074H42.3447Z" fill="#1F2937"/>
<path d="M48.8593 13.6679C48.9465 15.2571 49.8599 16.2876 51.2635 16.2876C52.1826 16.2876 52.9916 15.8369 53.1874 15.1069H56.1176C55.4616 17.2759 53.6877 18.5001 51.4007 18.5001C47.8159 18.5001 46.0235 16.567 46.0235 12.7442C46.0177 9.48572 47.9188 7.37988 51.2206 7.37988C54.5225 7.37988 56.2706 9.48572 56.2706 13.6707L48.8593 13.6679ZM53.3418 11.9074C53.2975 10.3393 52.2483 9.58821 51.1334 9.58821C49.9899 9.58821 49.0566 10.4474 48.9465 11.9074H53.3418Z" fill="#1F2937"/>
<path d="M23.7616 7.52026C23.6225 7.72353 23.4346 7.89007 23.2145 8.00522C22.9944 8.12037 22.7489 8.1806 22.4995 8.1806C22.2501 8.1806 22.0046 8.12037 21.7845 8.00522C21.5644 7.89007 21.3765 7.72353 21.2374 7.52026H21.083V18.086H23.9246V7.52026H23.7616Z" fill="#1F2937"/>
<path d="M22.5127 4.67295C22.4027 4.67263 22.2935 4.69067 22.1897 4.7263L19.7598 2.97144L21.7509 5.01269C21.6016 5.18217 21.5158 5.39667 21.5076 5.62062C21.4995 5.84458 21.5695 6.06454 21.7061 6.24403C21.8427 6.42352 22.0377 6.55177 22.2587 6.60751C22.4797 6.66324 22.7134 6.64312 22.9212 6.55048C23.129 6.45783 23.2982 6.29823 23.401 6.09813C23.5037 5.89803 23.5337 5.66946 23.486 5.45031C23.4383 5.23116 23.3158 5.0346 23.1388 4.89321C22.9618 4.75183 22.7409 4.67411 22.5127 4.67295Z" fill="#0F34AE"/>
<path d="M20.3454 2.04498L19.8623 0.896598C20.1124 0.714092 21.4346 0.451564 21.8177 0.50772V1.7642C21.5618 1.7993 21.3131 1.82036 21.0673 1.86809C20.8214 1.91582 20.5927 1.98602 20.3454 2.04498Z" fill="#1F2937"/>
<path d="M22.1553 1.73616V0.500732C22.8277 0.517569 23.4923 0.646699 24.1207 0.882591L23.639 2.02676L22.1553 1.73616Z" fill="#1F2937"/>
<path d="M27.9522 6.19775H26.6958L26.4014 4.74191L27.562 4.2688C27.8044 4.88486 27.9364 5.53747 27.9522 6.19775Z" fill="#1F2937"/>
<path d="M26.0855 2.09418L25.1892 2.97021L23.9414 2.15034C24.0843 1.79094 24.2559 1.40487 24.4231 1.00757C25.0361 1.27438 25.5982 1.64185 26.0855 2.09418Z" fill="#1F2937"/>
<path d="M16.4122 4.26733L17.5742 4.74045L17.2798 6.19769H16.0205C16.0379 5.537 16.1704 4.88411 16.4122 4.26733Z" fill="#1F2937"/>
<path d="M19.5551 1.01025L20.0354 2.15021L18.7861 2.9729L17.9014 2.10108C18.1401 1.80205 19.042 1.20259 19.5551 1.01025Z" fill="#1F2937"/>
<path d="M26.3343 2.35107C26.6716 2.6473 27.1919 3.41382 27.4363 3.97117L26.8374 4.21544L26.2743 4.44568C25.9884 4.02451 25.7168 3.62581 25.4424 3.22429L26.3343 2.35107Z" fill="#1F2937"/>
<path d="M17.6982 4.44428L16.5361 3.97117C16.8078 3.3726 17.1799 2.82307 17.6367 2.34546L18.5287 3.22991L17.6982 4.44428Z" fill="#1F2937"/>
</svg>
