<svg width="117" height="36" viewBox="0 0 117 36" fill="none" xmlns="http://www.w3.org/2000/svg">
<path d="M114.557 35.7107C115.906 35.7107 117 34.6271 117 33.2904C117 31.9537 115.906 30.8701 114.557 30.8701C113.207 30.8701 112.113 31.9537 112.113 33.2904C112.113 34.6271 113.207 35.7107 114.557 35.7107Z" fill="#FDFDFD"/>
<path d="M0 35.4411V6.92529H11.1425C18.9459 6.92529 24.4958 12.2067 24.4958 20.8828C24.4958 29.5588 19.5099 35.4411 12.0523 35.4411H0ZM10.8392 30.5865C16.0858 30.5865 18.3393 27.3238 18.3393 20.8828C18.3393 14.4417 16.0717 11.8642 10.3176 11.8642H5.85326V30.5865H10.8392Z" fill="#FDFDFD"/>
<path d="M26.4459 35.4412V14.3211H31.7465V16.8481C33.6116 14.0122 35.78 13.7595 38.0759 13.7595H38.8129V19.4649C38.2978 19.3787 37.7763 19.3355 37.2539 19.3358C33.7845 19.3358 32.0923 21.0541 32.0923 24.4459V35.4412H26.4459Z" fill="#FDFDFD"/>
<path d="M55.321 35.4412L47.6906 14.321H53.9747L58.4418 28.2785L62.9515 14.321H68.8785L61.2253 35.4412H55.321Z" fill="#FDFDFD"/>
<path d="M74.0941 26.3356C74.267 29.514 76.0782 31.5749 78.8617 31.5749C80.6815 31.5749 82.2858 30.6736 82.6769 29.2136H88.4877C87.1866 33.5516 83.669 36 79.1338 36C72.022 36 68.4676 32.1337 68.4676 24.4881C68.4562 17.9712 72.2289 13.7595 78.7738 13.7595C85.3187 13.7595 88.791 17.9712 88.791 26.3412L74.0941 26.3356ZM82.9802 22.8146C82.8924 19.6783 80.8118 18.1762 78.6009 18.1762C76.39 18.1762 74.4824 19.8945 74.2641 22.8146H82.9802Z" fill="#FDFDFD"/>
<path d="M95.8999 26.3356C96.0728 29.514 97.8841 31.5749 100.668 31.5749C102.49 31.5749 104.094 30.6736 104.483 29.2136H110.294C108.993 33.5516 105.475 36 100.94 36C93.8307 36 90.2763 32.1337 90.2763 24.4881C90.2649 17.9712 94.0348 13.7595 100.583 13.7595C107.13 13.7595 110.597 17.9712 110.597 26.3412L95.8999 26.3356ZM104.789 22.8146C104.701 19.6783 102.621 18.1762 100.41 18.1762C98.142 18.1762 96.2911 19.8945 96.0728 22.8146H104.789Z" fill="#FDFDFD"/>
<path d="M46.1288 14.0403C45.8529 14.4468 45.4803 14.7799 45.0438 15.0102C44.6073 15.2405 44.1204 15.361 43.6259 15.361C43.1314 15.361 42.6444 15.2405 42.208 15.0102C41.7715 14.7799 41.3989 14.4468 41.123 14.0403H40.8169V35.1717H46.4519V14.0403H46.1288Z" fill="#FDFDFD"/>
<path d="M43.6514 8.34615C43.4333 8.3455 43.2167 8.38158 43.0108 8.45284L38.1921 4.94312L42.1406 9.02563C41.8446 9.36458 41.6744 9.79358 41.6582 10.2415C41.6421 10.6894 41.781 11.1293 42.0519 11.4883C42.3228 11.8473 42.7094 12.1038 43.1477 12.2153C43.5859 12.3267 44.0494 12.2865 44.4614 12.1012C44.8734 11.9159 45.2091 11.5967 45.4128 11.1965C45.6165 10.7963 45.676 10.3392 45.5815 9.90086C45.4869 9.46256 45.244 9.06944 44.893 8.78667C44.5419 8.50389 44.1039 8.34847 43.6514 8.34615Z" fill="#FDFDFD"/>
<path d="M39.3543 3.08996L38.3962 0.793195C38.8923 0.428183 41.5142 -0.0968723 42.2738 0.0154391V2.52841C41.7665 2.5986 41.2733 2.64072 40.7857 2.73618C40.2982 2.83165 39.8447 2.97204 39.3543 3.08996Z" fill="#FDFDFD"/>
<path d="M42.9427 2.47231V0.00146484C44.2762 0.035138 45.5942 0.293398 46.8402 0.765182L45.885 3.05353L42.9427 2.47231Z" fill="#FDFDFD"/>
<path d="M54.4396 11.3955H51.948L51.3641 8.48382L53.6658 7.5376C54.1464 8.76972 54.4082 10.0749 54.4396 11.3955Z" fill="#FDFDFD"/>
<path d="M50.7377 3.18812L48.9605 4.94017L46.486 3.30043C46.7694 2.58164 47.1096 1.8095 47.4412 1.01489C48.6567 1.54852 49.7715 2.28345 50.7377 3.18812Z" fill="#FDFDFD"/>
<path d="M31.5538 7.53467L33.8582 8.48089L33.2743 11.3954H30.7771C30.8116 10.074 31.0743 8.76822 31.5538 7.53467Z" fill="#FDFDFD"/>
<path d="M37.7869 1.02051L38.7392 3.30043L36.2619 4.94579L34.5073 3.20216C34.9807 2.6041 36.7693 1.40517 37.7869 1.02051Z" fill="#FDFDFD"/>
<path d="M51.2309 3.70215C51.8998 4.29459 52.9316 5.82764 53.4163 6.94233L52.2286 7.43088L51.1118 7.89136C50.5449 7.04903 50.0064 6.25162 49.4622 5.44859L51.2309 3.70215Z" fill="#FDFDFD"/>
<path d="M34.1047 7.88855L31.8003 6.94233C32.3391 5.74521 33.0768 4.64614 33.9829 3.69092L35.7516 5.45982L34.1047 7.88855Z" fill="#FDFDFD"/>
</svg>
