<svg width="60" height="18" viewBox="0 0 60 18" fill="none" xmlns="http://www.w3.org/2000/svg">
<path d="M58.2682 17.8554C58.9487 17.8554 59.5004 17.3136 59.5004 16.6452C59.5004 15.9769 58.9487 15.4351 58.2682 15.4351C57.5878 15.4351 57.0361 15.9769 57.0361 16.6452C57.0361 17.3136 57.5878 17.8554 58.2682 17.8554Z" fill="#FDFDFD"/>
<path d="M0.5 17.7206V3.46265H6.11884C10.0539 3.46265 12.8526 6.10337 12.8526 10.4414C12.8526 14.7794 10.3383 17.7206 6.57767 17.7206H0.5ZM5.9659 15.2932C8.61166 15.2932 9.74801 13.6619 9.74801 10.4414C9.74801 7.22087 8.60451 5.93209 5.7029 5.93209H3.45164V15.2932H5.9659Z" fill="#FDFDFD"/>
<path d="M13.8359 17.7207V7.16066H16.5089V8.42416C17.4494 7.00623 18.5428 6.87988 19.7006 6.87988H20.0723V9.73259C19.8125 9.6895 19.5495 9.66789 19.2861 9.66801C17.5366 9.66801 16.6832 10.5272 16.6832 12.2231V17.7207H13.8359Z" fill="#FDFDFD"/>
<path d="M28.3967 17.7207L24.5488 7.16064H27.7177L29.9704 14.1394L32.2445 7.16064H35.2334L31.3741 17.7207H28.3967Z" fill="#FDFDFD"/>
<path d="M37.8637 13.1679C37.9509 14.7571 38.8642 15.7876 40.2679 15.7876C41.1855 15.7876 41.9945 15.3369 42.1918 14.6069H45.122C44.4659 16.7759 42.6921 18.0001 40.4051 18.0001C36.8188 18.0001 35.0264 16.067 35.0264 12.2442C35.0207 8.98572 36.9232 6.87988 40.2236 6.87988C43.524 6.87988 45.2749 8.98572 45.2749 13.1707L37.8637 13.1679ZM42.3447 11.4074C42.3004 9.83929 41.2513 9.08821 40.1364 9.08821C39.0215 9.08821 38.0595 9.94739 37.9494 11.4074H42.3447Z" fill="#FDFDFD"/>
<path d="M48.8593 13.1679C48.9465 14.7571 49.8599 15.7876 51.2635 15.7876C52.1826 15.7876 52.9916 15.3369 53.1874 14.6069H56.1176C55.4616 16.7759 53.6877 18.0001 51.4007 18.0001C47.8159 18.0001 46.0235 16.067 46.0235 12.2442C46.0177 8.98572 47.9188 6.87988 51.2206 6.87988C54.5225 6.87988 56.2706 8.98572 56.2706 13.1707L48.8593 13.1679ZM53.3418 11.4074C53.2975 9.83929 52.2483 9.08821 51.1334 9.08821C49.9899 9.08821 49.0566 9.94739 48.9465 11.4074H53.3418Z" fill="#FDFDFD"/>
<path d="M23.7616 7.02026C23.6225 7.22353 23.4346 7.39007 23.2145 7.50522C22.9944 7.62037 22.7489 7.6806 22.4995 7.6806C22.2501 7.6806 22.0046 7.62037 21.7845 7.50522C21.5644 7.39007 21.3765 7.22353 21.2374 7.02026H21.083V17.586H23.9246V7.02026H23.7616Z" fill="#FDFDFD"/>
<path d="M22.5127 4.17295C22.4027 4.17263 22.2935 4.19067 22.1897 4.2263L19.7598 2.47144L21.7509 4.51269C21.6016 4.68217 21.5158 4.89667 21.5076 5.12062C21.4995 5.34458 21.5695 5.56454 21.7061 5.74403C21.8427 5.92352 22.0377 6.05177 22.2587 6.10751C22.4797 6.16324 22.7134 6.14312 22.9212 6.05048C23.129 5.95783 23.2982 5.79823 23.401 5.59813C23.5037 5.39803 23.5337 5.16946 23.486 4.95031C23.4383 4.73116 23.3158 4.5346 23.1388 4.39321C22.9618 4.25183 22.7409 4.17411 22.5127 4.17295Z" fill="#FDFDFD"/>
<path d="M20.3454 1.54498L19.8623 0.396598C20.1124 0.214092 21.4346 -0.0484361 21.8177 0.00771954V1.2642C21.5618 1.2993 21.3131 1.32036 21.0673 1.36809C20.8214 1.41582 20.5927 1.48602 20.3454 1.54498Z" fill="#FDFDFD"/>
<path d="M22.1553 1.23616V0.000732422C22.8277 0.017569 23.4923 0.146699 24.1207 0.382591L23.639 1.52676L22.1553 1.23616Z" fill="#FDFDFD"/>
<path d="M27.9522 5.69775H26.6958L26.4014 4.24191L27.562 3.7688C27.8044 4.38486 27.9364 5.03747 27.9522 5.69775Z" fill="#FDFDFD"/>
<path d="M26.0855 1.59418L25.1892 2.47021L23.9414 1.65034C24.0843 1.29094 24.2559 0.90487 24.4231 0.507568C25.0361 0.774381 25.5982 1.14185 26.0855 1.59418Z" fill="#FDFDFD"/>
<path d="M16.4122 3.76733L17.5742 4.24045L17.2798 5.69769H16.0205C16.0379 5.037 16.1704 4.38411 16.4122 3.76733Z" fill="#FDFDFD"/>
<path d="M19.5551 0.510254L20.0354 1.65021L18.7861 2.4729L17.9014 1.60108C18.1401 1.30205 19.042 0.702587 19.5551 0.510254Z" fill="#FDFDFD"/>
<path d="M26.3343 1.85107C26.6716 2.1473 27.1919 2.91382 27.4363 3.47117L26.8374 3.71544L26.2743 3.94568C25.9884 3.52451 25.7168 3.12581 25.4424 2.72429L26.3343 1.85107Z" fill="#FDFDFD"/>
<path d="M17.6982 3.94428L16.5361 3.47117C16.8078 2.8726 17.1799 2.32307 17.6367 1.84546L18.5287 2.72991L17.6982 3.94428Z" fill="#FDFDFD"/>
</svg>
